HIERARCHY
ROOT hip
{
	OFFSET 0.000000 0.000000 0.000000
	CHANNELS 6 Xposition Yposition Zposition Zrotation Yrotation Xrotation 
	JOINT lhipjoint
	{
		OFFSET 0.000000 0.000000 0.000000
		CHANNELS 3 Zrotation Yrotation Xrotation
		JOINT lfemur
		{
			OFFSET 1.363060 -1.794630 0.839290
			CHANNELS 3 Zrotation Yrotation Xrotation
			JOINT ltibia
			{
				OFFSET 2.448110 -6.726130 0.000000
				CHANNELS 3 Zrotation Yrotation Xrotation
				JOINT lfoot
				{
					OFFSET 2.562200 -7.039590 0.000000
					CHANNELS 3 Zrotation Yrotation Xrotation
					JOINT ltoes
					{
						OFFSET 0.157640 -0.433110 2.322550
						CHANNELS 3 Zrotation Yrotation Xrotation
						End Site
						{
							OFFSET 0.000000 0.000000 0.000000
						}
					}
				}
			}
		}
	}
	JOINT rhipjoint
	{
		OFFSET 0.000000 0.000000 0.000000
		CHANNELS 3 Zrotation Yrotation Xrotation
		JOINT rfemur
		{
			OFFSET -1.305520 -1.794630 0.839290
			CHANNELS 3 Zrotation Yrotation Xrotation
			JOINT rtibia
			{
				OFFSET -2.542530 -6.985550 0.000000
				CHANNELS 3 Zrotation Yrotation Xrotation
				JOINT rfoot
				{
					OFFSET -2.568260 -7.056230 0.000000
					CHANNELS 3 Zrotation Yrotation Xrotation
					JOINT rtoes
					{
						OFFSET -0.164730 -0.452590 2.363150
						CHANNELS 3 Zrotation Yrotation Xrotation
						End Site
						{
							OFFSET 0.000000 0.000000 0.000000
						}
					}
				}
			}
		}
	}
	JOINT lowerback
	{
		OFFSET 0.000000 0.000000 0.000000
		CHANNELS 3 Zrotation Yrotation Xrotation
		JOINT upperback
		{
			OFFSET 0.028270 2.035590 -0.193380
			CHANNELS 3 Zrotation Yrotation Xrotation
			JOINT thorax
			{
				OFFSET 0.056720 2.048850 -0.042750
				CHANNELS 3 Zrotation Yrotation Xrotation
				JOINT lowerneck
				{
					OFFSET 0.000000 0.000000 0.000000
					CHANNELS 3 Zrotation Yrotation Xrotation
					JOINT upperneck
					{
						OFFSET -0.054170 1.746240 0.172020
						CHANNELS 3 Zrotation Yrotation Xrotation
						JOINT head
						{
							OFFSET 0.104070 1.761360 -0.123970
							CHANNELS 3 Zrotation Yrotation Xrotation
							End Site
							{
								OFFSET 0.000000 0.000000 0.000000
							}
						}
					}
				}
				JOINT lclavicle
				{
					OFFSET 0.000000 0.000000 0.000000
					CHANNELS 3 Zrotation Yrotation Xrotation
					JOINT lhumerus
					{
						OFFSET 3.362410 1.200890 -0.311210
						CHANNELS 3 Zrotation Yrotation Xrotation
						JOINT lradius
						{
							OFFSET 4.983000 -0.000000 -0.000000
							CHANNELS 3 Zrotation Yrotation Xrotation
							JOINT lwrist
							{
								OFFSET 3.483560 -0.000000 -0.000000
								CHANNELS 3 Zrotation Yrotation Xrotation
								JOINT lhand
								{
									OFFSET 0.000000 0.000000 0.000000
									CHANNELS 3 Zrotation Yrotation Xrotation
									JOINT lfingers
									{
										OFFSET 0.715260 -0.000000 -0.000000
										CHANNELS 3 Zrotation Yrotation Xrotation
										End Site
										{
											OFFSET 0.000000 0.000000 0.000000
										}
									}
								}
								JOINT lthumb
								{
									OFFSET 0.000000 0.000000 0.000000
									CHANNELS 3 Zrotation Yrotation Xrotation
									End Site
									{
										OFFSET 0.000000 0.000000 0.000000
									}
								}
							}
						}
					}
				}
				JOINT rclavicle
				{
					OFFSET 0.000000 0.000000 0.000000
					CHANNELS 3 Zrotation Yrotation Xrotation
					JOINT rhumerus
					{
						OFFSET -3.136600 1.374050 -0.404650
						CHANNELS 3 Zrotation Yrotation Xrotation
						JOINT rradius
						{
							OFFSET -5.241900 -0.000000 -0.000000
							CHANNELS 3 Zrotation Yrotation Xrotation
							JOINT rwrist
							{
								OFFSET -3.444170 -0.000000 -0.000000
								CHANNELS 3 Zrotation Yrotation Xrotation
								JOINT rhand
								{
									OFFSET 0.000000 0.000000 0.000000
									CHANNELS 3 Zrotation Yrotation Xrotation
									JOINT rfingers
									{
										OFFSET -0.622530 -0.000000 -0.000000
										CHANNELS 3 Zrotation Yrotation Xrotation
										End Site
										{
											OFFSET 0.000000 0.000000 0.000000
										}
									}
								}
								JOINT rthumb
								{
									OFFSET 0.000000 0.000000 0.000000
									CHANNELS 3 Zrotation Yrotation Xrotation
									End Site
									{
										OFFSET 0.000000 0.000000 0.000000
									}
								}
							}
						}
					}
				}
			}
		}
	}
}
MOTION
Frames: 12
Frame Time: 0.008333
-2.250662 18.257330 -11.741796 -154.386505 75.292727 -162.979457 -3.320676 1.723014 1.517190 -9.944527 -1.808456 -21.508680 5.420347 12.920960 42.456920 0.795018 0.117133 16.813954 0.272600 3.358400 9.278300 -0.557672 -3.835058 1.447044 22.006975 11.257738 -18.447332 -5.964039 -12.963876 45.179078 -1.165937 3.564324 17.649066 -3.073600 10.813200 -31.652400 10.223803 -0.278026 7.487751 2.201699 0.563664 -4.416182 1.489516 1.257001 -0.102963 -1.774057 -7.596483 -7.337695 -4.280105 -8.173932 0.826517 1.265500 -3.414700 0.135000 3.365325 -1.108193 -0.151922 -86.337864 38.304030 -52.834885 4.792109 -19.330850 -1.042858 -1.300215 1.848335 -143.764736 27.001086 11.991015 5.987200 -7.125000 0.000000 0.000000 -2.269800 44.325700 0.037800 -2.777574 5.224484 3.520823 90.808841 -27.286575 -9.650908 2.483927 11.387702 -1.320143 -2.580093 -1.153290 7.948268 -25.149985 8.284439 -4.226000 7.125000 0.000000 0.000000 3.006900 -19.014600 1.865700 
-2.116395 17.745066 -11.765780 -153.185842 75.439027 -162.129209 -3.299875 1.657599 1.432748 -9.514806 -2.632604 -22.826924 6.422485 13.945957 46.972105 1.142692 -4.830907 12.337186 0.418700 4.153300 11.508400 -0.581743 -3.796650 1.407883 22.156344 11.851127 -19.008903 -6.827744 -13.733258 48.735808 -1.287454 6.184745 14.218234 -2.564000 9.953400 -28.825900 10.733310 -0.372269 8.561756 2.133712 0.652323 -4.318240 0.768008 1.277919 -0.197113 -0.955803 -7.741043 -7.097010 -4.274007 -8.330761 0.161979 1.136500 -3.434700 -0.222500 3.735475 -0.625584 0.165884 -86.385495 33.515679 -55.365633 5.326184 -19.172106 -1.111929 -1.273668 1.883156 -141.333737 27.644070 11.513698 5.912200 -7.125000 0.000000 0.000000 -1.636200 43.823400 0.047500 -3.354223 4.834916 3.183046 89.156465 -22.601776 -7.066438 4.909241 8.760818 -1.109357 -2.790749 -0.842743 8.146675 -26.043631 7.379067 -3.851600 7.125000 0.000000 0.000000 2.511000 -20.253000 1.487900 
-1.988278 17.240181 -11.786894 -152.626719 75.516565 -161.509870 -3.294255 1.598003 1.306035 -9.218921 -3.628967 -24.722120 7.738343 14.997944 51.997704 1.475016 -8.939546 7.743388 0.594600 4.936600 13.727800 -0.602366 -3.752183 1.369983 22.155040 12.421717 -20.269293 -7.922471 -14.586732 52.846314 -1.477553 8.961906 10.059325 -2.150300 9.172300 -26.335900 10.997496 -0.463733 9.226403 2.079363 0.659709 -4.239776 0.242435 1.251403 -0.143998 -0.059347 -7.809551 -7.013940 -4.425310 -8.394416 -0.465195 0.888400 -3.427500 -0.544100 4.098531 -0.081402 0.403567 -86.636419 28.475678 -57.420859 5.991201 -19.302568 -1.247678 -1.212611 1.949156 -138.358526 28.036371 10.474342 5.501800 -7.125000 0.000000 0.000000 -1.179200 42.680200 0.067500 -3.800814 4.335440 2.838916 87.509833 -17.716137 -4.560478 7.063452 6.117793 -0.918533 -2.969351 -0.550567 8.382176 -26.657662 6.525501 -3.430500 7.125000 0.000000 0.000000 2.192800 -21.458600 1.239500 
-1.868975 16.758562 -11.805035 -152.102234 75.587110 -160.715177 -3.289690 1.541280 1.159379 -8.880680 -4.648450 -26.921921 9.299778 15.993609 57.345284 1.839920 -12.523327 3.393152 0.775400 5.622400 15.692700 -0.616478 -3.699623 1.323493 22.144108 13.072558 -22.039318 -9.242932 -15.456365 57.381178 -1.771149 11.841348 5.400090 -1.823900 8.489300 -24.210300 11.125237 -0.539682 9.747287 2.047396 0.666471 -4.172613 0.013156 1.215597 -0.085668 0.461260 -7.869730 -6.849315 -4.337246 -8.423299 -1.149216 0.835400 -3.385000 -0.859900 4.393099 0.507211 0.583337 -86.913765 23.564564 -58.035128 6.592571 -19.619854 -1.404065 -1.139556 2.016318 -135.824423 28.327219 9.086855 4.894300 -7.125000 0.000000 0.000000 -0.796400 41.153400 0.075600 -4.123896 3.761413 2.478070 85.747350 -12.567536 -2.229500 9.211967 3.115375 -0.760097 -3.165392 -0.170887 8.508237 -27.333614 6.523788 -3.337700 7.125000 0.000000 0.000000 1.875500 -21.826500 1.044300 
-1.759512 16.293958 -11.821127 -151.025138 75.621527 -159.581787 -3.282212 1.484773 1.013420 -8.342349 -5.536657 -28.931828 11.028661 16.879077 62.828213 2.222052 -15.591626 -0.678186 1.099800 6.663800 18.723200 -0.618333 -3.653737 1.268845 22.352916 13.686623 -23.710092 -10.778163 -16.272879 62.240247 -2.176391 14.595773 0.306697 -1.679800 8.164700 -23.215500 11.342478 -0.600048 10.632188 2.036861 0.777129 -4.085954 -0.076322 1.241517 -0.006601 0.709478 -7.904970 -7.023834 -4.049437 -8.439765 -1.688689 0.909800 -3.340600 -0.994500 4.613169 1.050419 0.688381 -87.161431 18.740163 -56.698146 7.118401 -20.227982 -1.585303 -1.085990 2.069615 -133.650995 28.625465 7.885033 4.354100 -7.125000 0.000000 0.000000 -0.453500 39.813700 0.058000 -4.324030 3.194877 2.242078 84.614108 -7.904360 -0.114982 9.998973 2.015712 -0.704387 -3.229462 0.013572 8.655413 -27.683005 6.705143 -3.382300 7.125000 0.000000 0.000000 1.688400 -21.798800 0.941100 
-1.663167 15.877628 -11.835373 -149.891239 75.619572 -158.438804 -3.269605 1.413474 0.861020 -7.721932 -6.343185 -31.061494 12.876018 17.615081 68.417952 2.554349 -17.726296 -4.068801 1.268500 7.138700 20.126900 -0.607923 -3.605621 1.221542 22.618051 14.266198 -25.337916 -12.376200 -16.952472 67.029053 -2.618468 16.689957 -4.306319 -1.746000 8.315600 -23.676700 11.582866 -0.581513 11.662143 2.010020 1.014420 -4.002274 -0.286634 1.338116 0.061356 1.241177 -7.943764 -7.472734 -3.872182 -8.516108 -2.053548 0.842100 -3.359600 -0.999000 4.794865 1.570266 0.746844 -87.086753 13.910214 -53.400433 7.242189 -20.581466 -1.698288 -1.031710 2.067189 -132.336867 27.971309 6.867313 3.727700 -7.125000 0.000000 0.000000 -0.924300 38.581700 0.146100 -4.433903 2.611357 2.032365 83.746801 -3.365258 1.726817 10.368053 1.538773 -0.673111 -3.237089 0.137438 9.211465 -27.729984 6.817246 -3.393000 7.125000 0.000000 0.000000 1.672400 -21.779900 0.932800 
-1.584965 15.493378 -11.846238 -149.437278 75.621210 -157.805781 -3.261202 1.332039 0.706268 -7.243229 -7.120610 -33.410154 14.716924 18.149750 73.834458 2.831166 -19.255099 -6.784230 1.367900 7.402100 20.912200 -0.597961 -3.536166 1.179412 22.627447 14.914744 -27.231373 -13.940973 -17.492225 71.629087 -2.991503 18.188744 -7.644385 -1.650900 8.097500 -23.010700 11.555856 -0.518279 12.672769 1.987244 1.275775 -3.945514 -0.366218 1.438380 0.073946 1.923038 -7.928647 -8.042600 -3.792499 -8.552140 -2.372737 0.672200 -3.378500 -0.970900 4.948341 2.046265 0.755974 -87.017727 9.108664 -48.781696 7.168537 -20.891190 -1.756130 -0.997300 2.087349 -131.080637 28.345834 5.884649 3.299900 -7.125000 0.000000 0.000000 -0.543600 37.489800 0.100500 -4.451245 2.049688 1.903802 83.056982 0.749583 3.625547 9.818523 2.354098 -0.653221 -3.093016 0.060534 9.766191 -26.930094 6.324313 -3.103800 7.125000 0.000000 0.000000 2.128100 -22.292800 1.162600 
-1.523263 15.138442 -11.854642 -149.375307 75.574926 -157.549784 -3.255189 1.247436 0.554833 -6.834827 -7.807764 -35.732692 16.454147 18.498020 78.864905 3.060624 -20.443119 -8.978839 1.395000 7.472000 21.121600 -0.593190 -3.448694 1.133090 22.519324 15.568316 -29.168954 -15.395353 -17.887085 75.893932 -3.241177 19.048572 -9.794625 -1.287100 7.188800 -20.275800 11.367874 -0.538999 13.812192 1.985468 1.437065 -3.888475 -0.274424 1.482295 0.075411 2.633513 -7.819136 -8.781800 -3.778486 -8.472506 -2.761850 0.451000 -3.342900 -0.934300 5.079269 2.510070 0.737741 -86.998066 4.384544 -43.517571 6.666481 -20.744786 -1.685253 -1.008971 2.066732 -131.101968 28.161127 5.486959 3.065000 -7.125000 0.000000 0.000000 -0.669800 36.997400 0.131900 -4.378693 1.487652 1.819391 82.301128 4.794778 5.741134 8.722570 3.835940 -0.637558 -2.852149 -0.143777 9.954062 -25.612647 5.477627 -2.657100 7.125000 0.000000 0.000000 2.881100 -23.120000 1.520300 
-1.473451 14.825631 -11.860689 -149.496991 75.578784 -157.716029 -3.258654 1.175901 0.427661 -6.528216 -8.249795 -37.564613 17.975079 18.695331 83.234990 3.251408 -21.298896 -10.777048 1.257600 7.109200 20.039400 -0.589850 -3.352057 1.073156 22.385700 16.168274 -30.817905 -16.729661 -18.154524 79.829370 -3.378932 19.486037 -11.037896 -0.927700 6.136000 -17.179500 11.062806 -0.623651 15.293119 2.001441 1.571057 -3.812634 0.016726 1.506464 0.007628 3.081395 -7.676370 -9.529852 -3.734025 -8.339510 -3.142723 0.301800 -3.274500 -0.860000 5.128221 2.954729 0.706167 -86.978942 -0.063021 -36.774591 6.280677 -21.079722 -1.667031 -1.050204 2.040792 -133.129866 28.556572 4.489867 2.639300 -7.125000 0.000000 0.000000 -0.276600 35.932400 0.061600 -4.207637 0.928272 1.760963 81.297892 8.892739 7.862184 7.456073 5.415387 -0.676899 -2.671019 -0.234333 9.506891 -25.129134 6.176606 -2.924300 7.125000 0.000000 0.000000 3.106600 -22.334100 1.695400 
-1.433684 14.560172 -11.864994 -149.751822 75.552481 -158.349815 -3.276900 1.127678 0.343782 -6.318147 -8.472150 -38.683891 19.222614 18.784401 86.805598 3.406861 -22.059332 -12.187342 1.091800 6.640300 18.654000 -0.582313 -3.259259 1.013176 22.335489 16.551736 -32.103004 -17.955281 -18.317468 83.451735 -3.471607 19.343453 -12.091129 -0.803900 5.722300 -15.980700 10.823859 -0.799606 17.179027 2.025979 1.669316 -3.742227 0.366986 1.517404 -0.254483 3.041409 -7.552866 -10.113551 -3.572859 -8.207168 -3.367199 0.329600 -3.197600 -0.709100 5.063841 3.296176 0.628361 -86.916000 -4.132076 -29.557506 6.147763 -21.970791 -1.698280 -1.204692 1.946954 -136.802405 29.068104 4.907156 2.896000 -7.125000 0.000000 0.000000 0.134000 36.398400 -0.028400 -3.979978 0.484658 1.863833 80.511394 12.069482 10.184773 4.839169 8.875110 -0.823096 -2.378148 -0.534636 8.517880 -24.611247 7.051371 -3.343700 7.125000 0.000000 0.000000 3.264100 -21.161000 1.868700 
-1.400271 14.332841 -11.867044 -150.462813 75.535387 -159.674812 -3.314518 1.099227 0.287577 -6.300664 -8.561585 -39.216463 20.222791 18.804334 89.656326 3.551061 -22.682635 -13.430916 0.944700 6.190300 17.337500 -0.569660 -3.171396 0.949242 22.261396 16.754354 -33.019355 -19.054855 -18.398048 86.724688 -3.523533 18.721489 -12.994512 -0.806700 5.732200 -16.009300 10.576930 -0.992275 19.330662 2.044934 1.789996 -3.656462 0.885357 1.553681 -0.532767 2.399911 -7.551162 -10.730026 -3.311432 -8.172658 -3.463521 0.550100 -3.143800 -0.461900 4.889125 3.564625 0.507569 -87.030607 -8.256114 -22.617561 6.060246 -22.855362 -1.712587 -1.359672 1.783117 -141.444778 28.660897 5.956299 3.347900 -7.125000 0.000000 0.000000 -0.228900 37.501200 0.042300 -3.601639 0.153604 2.124424 79.356780 14.293982 12.634685 0.615684 14.142898 -1.103876 -1.869925 -1.047773 6.790807 -22.825946 8.353231 -3.778100 7.125000 0.000000 0.000000 4.186600 -19.450900 2.560300 
-1.365935 14.128878 -11.865917 -151.192774 75.480485 -161.039387 -3.356019 1.076875 0.240204 -6.309898 -8.658404 -39.494100 21.048589 18.783739 92.002844 3.700516 -23.017812 -14.652561 0.849700 5.879000 16.433600 -0.553000 -3.090324 0.888191 22.286783 16.810091 -33.730770 -20.014764 -18.417378 89.649416 -3.484786 17.645957 -13.442390 -0.880400 5.981700 -16.731300 10.388119 -1.197025 21.423562 2.068110 1.901489 -3.561758 1.506544 1.596686 -0.783656 1.517955 -7.628722 -11.242552 -3.089081 -8.178420 -3.588228 0.820300 -3.094900 -0.253900 4.626271 3.790099 0.380857 -87.247145 -12.276617 -15.689026 6.111208 -23.888584 -1.734991 -1.491283 1.539110 -147.225724 27.462177 7.740461 3.996800 -7.125000 0.000000 0.000000 -1.304700 39.334200 0.182200 -3.052539 -0.093608 2.410346 77.742469 16.202996 15.022381 -4.376967 19.742656 -1.506730 -1.282138 -1.639769 4.388636 -19.899032 9.380329 -3.812100 7.125000 0.000000 0.000000 5.864400 -18.090000 3.773400 
